<svg width="35" height="35" viewBox="0 0 35 35" fill="none" xmlns="http://www.w3.org/2000/svg">
<path d="M17.6182 34.0606C8.38338 34.0606 0.894531 26.5717 0.894531 17.3369C0.894531 8.10213 8.38338 0.613281 17.6182 0.613281C26.853 0.613281 34.3418 8.10213 34.3418 17.3369C34.3418 26.5717 26.853 34.0606 17.6182 34.0606Z" fill="url(#paint0_linear_1008_5599)"/>
<path d="M17.6354 25.2009C17.1881 25.1965 16.7396 25.2096 16.2943 25.1554C16.1352 25.136 16.0566 25.2595 15.9761 25.3506C15.7042 25.6587 15.4079 25.9419 15.1259 26.2395C14.7448 26.6418 14.368 27.0492 13.9775 27.4415C13.5303 27.8913 12.8447 27.8183 12.5447 27.2419C12.4648 27.0891 12.4274 26.9338 12.428 26.7635C12.4299 26.1515 12.4287 25.539 12.4287 24.927C12.4287 24.647 12.4312 24.6382 12.1667 24.5628C11.9253 24.4935 11.6988 24.39 11.4793 24.2752C10.8935 23.9689 10.3633 23.5822 9.87926 23.1324C9.2929 22.5879 8.80074 21.9684 8.42148 21.2636C8.24994 20.9448 8.09836 20.6098 8.02725 20.2568C7.97111 19.9786 7.90935 19.6997 7.86382 19.4178C7.8083 19.0741 7.77649 18.726 7.69539 18.386C7.69228 18.3729 7.69103 18.3592 7.68978 18.3455C7.63177 17.431 7.51886 16.5184 7.56378 15.6002C7.58249 15.2129 7.59247 14.823 7.63738 14.4387C7.68666 14.0115 7.71161 13.5817 7.79707 13.1562C7.85571 12.8649 7.89376 12.5668 7.9474 12.273C8.02787 11.8332 8.16074 11.4103 8.3616 11.0092C8.75832 10.2163 9.30413 9.53892 9.95723 8.94508C10.3908 8.55085 10.863 8.21026 11.3788 7.92956C11.7176 7.74554 12.0712 7.59521 12.438 7.48792C12.6913 7.41369 12.957 7.37065 13.2215 7.33384C13.5752 7.28457 13.927 7.21844 14.2801 7.15981C14.3025 7.15607 14.3256 7.1517 14.348 7.1517C14.6587 7.15731 14.965 7.09868 15.2719 7.06562C16.341 6.95022 17.4121 6.93088 18.4844 6.96332C19.1262 6.98328 19.7675 7.04004 20.4069 7.10055C20.8759 7.14484 21.3438 7.21283 21.8091 7.28893C22.209 7.3538 22.6157 7.40496 22.9974 7.54344C23.4403 7.70375 23.8608 7.91209 24.2618 8.16659C24.8133 8.51654 25.3011 8.9351 25.7477 9.4073C26.1451 9.82773 26.4931 10.2843 26.7688 10.794C26.9391 11.109 27.0901 11.4321 27.1749 11.7827C27.2516 12.0983 27.314 12.4158 27.3739 12.7352C27.4382 13.0783 27.4606 13.4282 27.5448 13.7676C27.5467 13.7763 27.5473 13.7856 27.5479 13.795C27.6016 14.6914 27.7157 15.5853 27.6733 16.4854C27.6546 16.8777 27.6315 17.2695 27.6053 17.6612C27.5804 18.0361 27.5317 18.411 27.4781 18.7834C27.4251 19.1502 27.3533 19.5151 27.2872 19.88C27.1936 20.3959 27.0215 20.8856 26.7695 21.3447C26.5206 21.7981 26.2149 22.2117 25.8756 22.6028C25.3953 23.1567 24.8345 23.6171 24.2232 24.0157C23.9032 24.224 23.5613 24.4037 23.202 24.5328C22.9344 24.6295 22.6606 24.7137 22.3718 24.7574C22.0643 24.8035 21.7549 24.8516 21.4505 24.9214C21.287 24.9589 21.1167 24.9601 20.9508 24.9807C20.6576 25.0162 20.3632 25.0518 20.0694 25.083C19.629 25.1298 19.1867 25.1254 18.7476 25.1753C18.3764 25.2152 18.0053 25.1978 17.6354 25.2009ZM13.1853 24.9233C13.1853 25.4991 13.1853 26.0742 13.1853 26.6499C13.1853 26.7423 13.1803 26.8439 13.2864 26.882C13.3962 26.9213 13.4947 26.8913 13.5814 26.804C14.0929 26.2894 14.5832 25.7542 15.1003 25.2446C15.3979 24.9514 15.6886 24.6488 15.9743 24.3432C16.2125 24.0887 16.472 23.8548 16.6953 23.5853C16.812 23.4449 16.9523 23.3713 17.1588 23.3726C17.8281 23.3769 18.4975 23.3888 19.1687 23.3358C19.808 23.2852 20.4443 23.2254 21.0799 23.1362C21.4654 23.0819 21.8491 23.022 22.2283 22.9366C22.6338 22.8455 22.9931 22.6509 23.3368 22.4226C24.066 21.9385 24.6698 21.3322 25.1245 20.5818C25.2736 20.336 25.4046 20.0753 25.4614 19.7958C25.5181 19.517 25.5743 19.2369 25.6223 18.9556C25.6859 18.5844 25.7246 18.2108 25.7858 17.8396C25.8294 17.5764 25.8238 17.305 25.8413 17.0374C25.9012 16.1211 25.8513 15.2047 25.7901 14.2897C25.7889 14.2716 25.7858 14.2535 25.7833 14.2354C25.724 13.8549 25.6566 13.4762 25.6092 13.0945C25.5762 12.8281 25.5138 12.5674 25.4545 12.3085C25.384 12.001 25.2356 11.7122 25.0634 11.4477C24.628 10.7796 24.0741 10.2226 23.4185 9.76722C23.0268 9.49526 22.6063 9.27943 22.141 9.17713C21.7343 9.0873 21.3201 9.03054 20.9078 8.96941C20.5672 8.91888 20.2241 8.87833 19.8816 8.85525C19.3857 8.82219 18.8917 8.7648 18.392 8.76106C17.1108 8.75046 15.832 8.76605 14.5601 8.94944C14.1385 9.01057 13.7174 9.07358 13.297 9.14407C12.9027 9.21019 12.5422 9.34742 12.1929 9.5383C11.6489 9.83584 11.1923 10.2369 10.7682 10.6804C10.5074 10.9524 10.2835 11.2543 10.0913 11.5774C9.94913 11.8164 9.8225 12.0696 9.77072 12.3422C9.71833 12.6223 9.65657 12.9011 9.60979 13.1824C9.54866 13.5486 9.50686 13.9179 9.4476 14.284C9.40394 14.5566 9.40456 14.838 9.38959 15.1143C9.33969 16.0256 9.3609 16.9389 9.44823 17.8477C9.46569 18.0311 9.48441 18.2183 9.51497 18.4016C9.57423 18.7541 9.63224 19.1071 9.69899 19.4583C9.73579 19.6523 9.77072 19.8507 9.83996 20.0347C10.0901 20.6959 10.5186 21.2411 11.0164 21.7277C11.3782 22.0813 11.7799 22.3926 12.2303 22.6334C12.4667 22.76 12.7081 22.8735 12.972 22.9353C13.1204 22.9702 13.1866 23.0395 13.1853 23.196C13.1822 23.7724 13.1847 24.3476 13.1853 24.9233Z" fill="#171717"/>
<path d="M14.1066 11.498C14.3798 11.4999 14.552 11.629 14.6967 11.8118C14.8926 12.0588 15.1021 12.2952 15.288 12.5491C15.4696 12.798 15.6324 13.0612 15.7952 13.3238C15.8788 13.4592 15.9661 13.5908 16.0073 13.753C16.0859 14.0605 15.9804 14.4167 15.7272 14.6144C15.5974 14.7161 15.472 14.8228 15.3435 14.9257C15.1177 15.1078 15.0934 15.4197 15.1895 15.6655C15.293 15.9312 15.4072 16.1913 15.5375 16.4452C15.8663 17.0846 16.3322 17.6086 16.9049 18.0334C17.253 18.2916 17.6422 18.4944 18.0539 18.6247C18.5205 18.7726 18.6714 18.7707 19.1043 18.1843C19.3308 17.8768 19.6152 17.7327 19.997 17.7945C20.1161 17.8138 20.2215 17.8737 20.3139 17.9367C20.8846 18.3266 21.4529 18.7202 21.9925 19.1537C22.1553 19.2847 22.2482 19.4531 22.2782 19.6496C22.3044 19.8199 22.2208 19.9765 22.1453 20.1218C21.9713 20.4587 21.7398 20.7525 21.4479 20.9989C21.1872 21.219 20.9058 21.3893 20.5609 21.4436C20.3706 21.4736 20.1991 21.4012 20.0338 21.3451C19.74 21.2459 19.4587 21.108 19.1748 20.9795C18.6153 20.7269 18.0745 20.4381 17.5524 20.1156C17.1376 19.8598 16.7352 19.5829 16.3528 19.2816C15.8906 18.9173 15.4521 18.5293 15.061 18.0827C14.6886 17.6572 14.3424 17.215 14.0236 16.7496C13.6955 16.2706 13.4042 15.7684 13.1497 15.2482C12.9501 14.8409 12.7548 14.4298 12.6058 13.9981C12.5421 13.8141 12.4523 13.6413 12.398 13.4504C12.3444 13.2627 12.3906 13.0886 12.4473 12.9346C12.6488 12.39 13.0605 12.0132 13.5421 11.7176C13.7192 11.6103 13.9032 11.4787 14.1066 11.498Z" fill="#171717"/>
<path d="M17.7065 10.9154C18.175 10.9609 18.6378 11.0183 19.0932 11.1612C19.8274 11.3914 20.4643 11.7781 21.0251 12.2896C21.4711 12.6963 21.8241 13.1854 22.0811 13.7305C22.2408 14.068 22.3649 14.4229 22.4373 14.7966C22.534 15.2975 22.5964 15.8003 22.6182 16.3093C22.6238 16.4421 22.5446 16.5189 22.4379 16.5675C22.3232 16.6193 22.209 16.5962 22.1335 16.4958C22.0724 16.4153 22.035 16.3161 22.04 16.2101C22.0549 15.8751 21.9888 15.5458 21.9514 15.2164C21.9058 14.8122 21.7811 14.4211 21.6033 14.0474C21.4679 13.7636 21.3095 13.4966 21.1205 13.2477C20.8099 12.8385 20.4431 12.4898 20.0083 12.2116C19.6746 11.9983 19.3203 11.8261 18.9447 11.7139C18.679 11.6346 18.4052 11.5716 18.1207 11.551C17.8706 11.5323 17.6117 11.5392 17.3684 11.4519C17.2468 11.4082 17.1688 11.3184 17.1794 11.1893C17.1907 11.052 17.341 10.9241 17.4739 10.9167C17.5512 10.9117 17.6292 10.9154 17.7065 10.9154Z" fill="#171717"/>
<path d="M21.3158 15.5671C21.3158 15.6307 21.3171 15.695 21.3158 15.7586C21.3121 15.9414 21.1911 16.0618 21.0326 16.0817C20.9016 16.0979 20.7519 15.9308 20.7401 15.7655C20.7332 15.67 20.7382 15.574 20.7332 15.4779C20.6883 14.5865 20.3103 13.8667 19.5942 13.3364C19.3185 13.1325 19.0028 12.999 18.6635 12.9173C18.4158 12.8574 18.1719 12.8019 17.9168 12.7856C17.7284 12.7738 17.6143 12.6247 17.6255 12.4775C17.6361 12.339 17.7422 12.1949 17.9499 12.2124C18.2799 12.2398 18.6011 12.2953 18.9199 12.3933C19.4014 12.5411 19.8262 12.7775 20.2055 13.1044C20.5442 13.3963 20.8062 13.7463 20.9833 14.1548C21.1187 14.468 21.2291 14.7892 21.2634 15.1354C21.2771 15.2783 21.3121 15.4211 21.3158 15.5671Z" fill="#171717"/>
<path d="M20.02 15.2512C20.0075 15.3723 20.0661 15.5213 19.8927 15.6056C19.7499 15.6748 19.5478 15.6174 19.5054 15.4652C19.476 15.3617 19.4461 15.2581 19.438 15.1465C19.4093 14.7291 19.1879 14.4291 18.8267 14.2376C18.71 14.1758 18.5734 14.1428 18.4325 14.1553C18.3196 14.1659 18.2135 14.1222 18.1231 14.0661C18.0133 13.9974 17.9758 13.8764 18.0183 13.756C18.0588 13.6413 18.1493 13.5664 18.2821 13.5664C18.604 13.5677 18.909 13.6413 19.1916 13.7935C19.6258 14.028 19.8647 14.4023 19.9682 14.8795C19.9944 15.0005 20.0131 15.1184 20.02 15.2512Z" fill="#171717"/>
<defs>
<linearGradient id="paint0_linear_1008_5599" x1="0.895188" y1="17.3368" x2="34.3406" y2="17.3368" gradientUnits="userSpaceOnUse">
<stop offset="0.0322" stop-color="#5D6066"/>
<stop offset="0.1179" stop-color="#838387"/>
<stop offset="0.2105" stop-color="#A7A7A9"/>
<stop offset="0.289" stop-color="#C0BFC0"/>
<stop offset="0.3436" stop-color="#C9C8C8"/>
<stop offset="0.5732" stop-color="#97979A"/>
<stop offset="0.8073" stop-color="#6F7075"/>
<stop offset="0.8424" stop-color="#84858A"/>
<stop offset="0.9085" stop-color="#A9AAAF"/>
<stop offset="0.9634" stop-color="#C3C3C8"/>
<stop offset="1" stop-color="#CCCDD1"/>
</linearGradient>
</defs>
</svg>
